<svg id="visual" viewBox="0 0 675 900" width="675" height="900" xmlns="http://www.w3.org/2000/svg" xmlns:xlink="http://www.w3.org/1999/xlink" version="1.1"><rect x="0" y="0" width="675" height="900" fill="#EEEEEE"></rect><defs><linearGradient id="grad1_0" x1="0%" y1="0%" x2="100%" y2="100%"><stop offset="30%" stop-color="#fd611a" stop-opacity="1"></stop><stop offset="70%" stop-color="#fd611a" stop-opacity="1"></stop></linearGradient></defs><defs><linearGradient id="grad1_1" x1="0%" y1="0%" x2="100%" y2="100%"><stop offset="30%" stop-color="#fd611a" stop-opacity="1"></stop><stop offset="70%" stop-color="#ffab85" stop-opacity="1"></stop></linearGradient></defs><defs><linearGradient id="grad1_2" x1="0%" y1="0%" x2="100%" y2="100%"><stop offset="30%" stop-color="#eeeeee" stop-opacity="1"></stop><stop offset="70%" stop-color="#ffab85" stop-opacity="1"></stop></linearGradient></defs><defs><linearGradient id="grad2_0" x1="0%" y1="0%" x2="100%" y2="100%"><stop offset="30%" stop-color="#fd611a" stop-opacity="1"></stop><stop offset="70%" stop-color="#fd611a" stop-opacity="1"></stop></linearGradient></defs><defs><linearGradient id="grad2_1" x1="0%" y1="0%" x2="100%" y2="100%"><stop offset="30%" stop-color="#ffab85" stop-opacity="1"></stop><stop offset="70%" stop-color="#fd611a" stop-opacity="1"></stop></linearGradient></defs><defs><linearGradient id="grad2_2" x1="0%" y1="0%" x2="100%" y2="100%"><stop offset="30%" stop-color="#ffab85" stop-opacity="1"></stop><stop offset="70%" stop-color="#eeeeee" stop-opacity="1"></stop></linearGradient></defs><g transform="translate(675, 0)"><path d="M0 450C-53.2 454.6 -106.3 459.2 -139.1 428C-171.8 396.8 -184 329.9 -215.1 296.1C-246.2 262.4 -296.2 261.8 -329.3 239.2C-362.3 216.7 -378.3 172.1 -395.6 128.6C-412.9 85 -431.5 42.5 -450 0L0 0Z" fill="#fdcdb9"></path><path d="M0 300C-35.4 303.1 -70.9 306.1 -92.7 285.3C-114.5 264.5 -122.7 219.9 -143.4 197.4C-164.2 174.9 -197.5 174.5 -219.5 159.5C-241.5 144.4 -252.2 114.7 -263.8 85.7C-275.3 56.7 -287.6 28.3 -300 0L0 0Z" fill="#ff8753"></path><path d="M0 150C-17.7 151.5 -35.4 153.1 -46.4 142.7C-57.3 132.3 -61.3 110 -71.7 98.7C-82.1 87.5 -98.7 87.3 -109.8 79.7C-120.8 72.2 -126.1 57.4 -131.9 42.9C-137.6 28.3 -143.8 14.2 -150 0L0 0Z" fill="#fd611a"></path></g><g transform="translate(0, 900)"><path d="M0 -450C48.8 -441.1 97.6 -432.1 132 -406.1C166.3 -380.1 186.3 -336.9 229.2 -315.5C272.1 -294.1 338 -294.5 364.1 -264.5C390.2 -234.5 376.5 -174 384.2 -124.8C391.9 -75.7 421 -37.8 450 0L0 0Z" fill="#fdcdb9"></path><path d="M0 -300C32.5 -294 65 -288.1 88 -270.7C110.9 -253.4 124.2 -224.6 152.8 -210.3C181.4 -196.1 225.3 -196.4 242.7 -176.3C260.1 -156.3 251 -116 256.2 -83.2C261.3 -50.5 280.6 -25.2 300 0L0 0Z" fill="#ff8753"></path><path d="M0 -150C16.3 -147 32.5 -144 44 -135.4C55.4 -126.7 62.1 -112.3 76.4 -105.2C90.7 -98 112.7 -98.2 121.4 -88.2C130.1 -78.2 125.5 -58 128.1 -41.6C130.6 -25.2 140.3 -12.6 150 0L0 0Z" fill="#fd611a"></path></g></svg>