<svg id="visual" viewBox="0 0 1000 1000" width="1000" height="1000" xmlns="http://www.w3.org/2000/svg" xmlns:xlink="http://www.w3.org/1999/xlink" version="1.1"><rect x="0" y="0" width="1000" height="1000" fill="#EEEEEE"></rect><defs><linearGradient id="grad1_0" x1="0%" y1="100%" x2="100%" y2="0%"><stop offset="30%" stop-color="#fd611a" stop-opacity="1"></stop><stop offset="70%" stop-color="#fd611a" stop-opacity="1"></stop></linearGradient></defs><defs><linearGradient id="grad1_1" x1="0%" y1="100%" x2="100%" y2="0%"><stop offset="30%" stop-color="#fd611a" stop-opacity="1"></stop><stop offset="70%" stop-color="#ff9363" stop-opacity="1"></stop></linearGradient></defs><defs><linearGradient id="grad1_2" x1="0%" y1="100%" x2="100%" y2="0%"><stop offset="30%" stop-color="#ffc1a7" stop-opacity="1"></stop><stop offset="70%" stop-color="#ff9363" stop-opacity="1"></stop></linearGradient></defs><defs><linearGradient id="grad1_3" x1="0%" y1="100%" x2="100%" y2="0%"><stop offset="30%" stop-color="#ffc1a7" stop-opacity="1"></stop><stop offset="70%" stop-color="#eeeeee" stop-opacity="1"></stop></linearGradient></defs><defs><linearGradient id="grad2_0" x1="0%" y1="100%" x2="100%" y2="0%"><stop offset="30%" stop-color="#fd611a" stop-opacity="1"></stop><stop offset="70%" stop-color="#fd611a" stop-opacity="1"></stop></linearGradient></defs><defs><linearGradient id="grad2_1" x1="0%" y1="100%" x2="100%" y2="0%"><stop offset="30%" stop-color="#ff9363" stop-opacity="1"></stop><stop offset="70%" stop-color="#fd611a" stop-opacity="1"></stop></linearGradient></defs><defs><linearGradient id="grad2_2" x1="0%" y1="100%" x2="100%" y2="0%"><stop offset="30%" stop-color="#ff9363" stop-opacity="1"></stop><stop offset="70%" stop-color="#ffc1a7" stop-opacity="1"></stop></linearGradient></defs><defs><linearGradient id="grad2_3" x1="0%" y1="100%" x2="100%" y2="0%"><stop offset="30%" stop-color="#eeeeee" stop-opacity="1"></stop><stop offset="70%" stop-color="#ffc1a7" stop-opacity="1"></stop></linearGradient></defs><g transform="translate(1000, 1000)"><path d="M-601 0C-607.5 -71.7 -614 -143.4 -571.6 -185.7C-529.3 -228.1 -438.2 -241 -398 -289.2C-357.9 -337.4 -368.8 -420.7 -338.6 -466C-308.3 -511.2 -237 -518.3 -173.7 -534.5C-110.4 -550.6 -55.2 -575.8 0 -601L0 0Z" fill="#f9d8ca"></path><path d="M-450.8 0C-455.6 -53.8 -460.5 -107.6 -428.7 -139.3C-397 -171 -328.6 -180.8 -298.5 -216.9C-268.4 -253 -276.6 -315.6 -253.9 -349.5C-231.2 -383.4 -177.7 -388.8 -130.3 -400.9C-82.8 -413 -41.4 -431.9 0 -450.8L0 0Z" fill="#ffab85"></path><path d="M-300.5 0C-303.8 -35.9 -307 -71.7 -285.8 -92.9C-264.6 -114 -219.1 -120.5 -199 -144.6C-179 -168.7 -184.4 -210.4 -169.3 -233C-154.2 -255.6 -118.5 -259.2 -86.8 -267.2C-55.2 -275.3 -27.6 -287.9 0 -300.5L0 0Z" fill="#ff7b41"></path><path d="M-150.3 0C-151.9 -17.9 -153.5 -35.9 -142.9 -46.4C-132.3 -57 -109.5 -60.3 -99.5 -72.3C-89.5 -84.3 -92.2 -105.2 -84.6 -116.5C-77.1 -127.8 -59.2 -129.6 -43.4 -133.6C-27.6 -137.7 -13.8 -144 0 -150.3L0 0Z" fill="#fd611a"></path></g><g transform="translate(0, 0)"><path d="M601 0C543.4 44.3 485.7 88.5 478.4 155.4C471.1 222.3 514.2 311.9 486.3 353.3C458.4 394.7 359.5 387.9 298 410.2C236.5 432.4 212.5 483.6 169 520.2C125.6 556.9 62.8 579 0 601L0 0Z" fill="#f9d8ca"></path><path d="M450.8 0C407.5 33.2 364.3 66.4 358.8 116.6C353.3 166.8 385.6 233.9 364.7 265C343.8 296 269.6 291 223.5 307.6C177.4 324.3 159.3 362.7 126.8 390.2C94.2 417.7 47.1 434.2 0 450.8L0 0Z" fill="#ffab85"></path><path d="M300.5 0C271.7 22.1 242.8 44.3 239.2 77.7C235.5 111.2 257.1 155.9 243.1 176.6C229.2 197.3 179.7 194 149 205.1C118.3 216.2 106.2 241.8 84.5 260.1C62.8 278.4 31.4 289.5 0 300.5L0 0Z" fill="#ff7b41"></path><path d="M150.3 0C135.8 11.1 121.4 22.1 119.6 38.9C117.8 55.6 128.5 78 121.6 88.3C114.6 98.7 89.9 97 74.5 102.5C59.1 108.1 53.1 120.9 42.3 130.1C31.4 139.2 15.7 144.7 0 150.3L0 0Z" fill="#fd611a"></path></g></svg>